<?xml version="1.0" encoding="UTF-8" standalone="no"?>
<!-- Created with Inkscape (http://www.inkscape.org/) -->

<svg
   xmlns:dc="http://purl.org/dc/elements/1.1/"
   xmlns:cc="http://creativecommons.org/ns#"
   xmlns:rdf="http://www.w3.org/1999/02/22-rdf-syntax-ns#"
   xmlns:svg="http://www.w3.org/2000/svg"
   xmlns="http://www.w3.org/2000/svg"
   version="1.1"
   width="27.125"
   height="46.041573"
   id="svg3039">
  <metadata
     id="metadata3045">
    <rdf:RDF>
      <cc:Work
         rdf:about="">
        <dc:format>image/svg+xml</dc:format>
        <dc:type
           rdf:resource="http://purl.org/dc/dcmitype/StillImage" />
        <dc:title></dc:title>
      </cc:Work>
    </rdf:RDF>
  </metadata>
  <defs
     id="defs3043" />
  <g
     transform="translate(-0.002741,0.01229956)"
     id="layer1"
     style="display:inline" />
  <g
     transform="translate(-0.002741,0.01229956)"
     id="layer2"
     style="display:inline" />
  <g
     transform="translate(39.09375,-16.927177)"
     id="g3059">
    <path
       d="m -35.601124,30.4476 c -0.964913,-2.5731 -2.995367,-5.273786 -2.995367,-7.816021 0.08908,-5.760213 7.853527,-5.175439 12.894737,-5.175439 5.321477,0 13.245614,-0.584869 13.245614,5.175439 0,2.662754 -2.000023,5.181127 -2.994175,7.812706 z"
       id="path3055"
       style="fill:#ffee93;fill-opacity:1;stroke:none" />
    <path
       d="m -30.717379,52.259046 c 0,7.54386 0.01563,7.740954 0.01563,7.740954 0,1.663471 2.64738,2.45614 5,2.45614 2.603353,0 5.701754,-0.684456 5.701754,-2.631579 l 0,-7.590734 z"
       id="path3057"
       style="fill:#afafaf;fill-opacity:1;stroke:none" />
    <path
       d="m -35.614035,30.438596 c 20.087719,0 20.175439,0 20.175439,0 -3.187135,5.847953 -2.339182,12.836258 -2.982457,19.912281 -0.497076,1.374269 -0.643274,1.520468 -2.017543,2.017544 -3.333333,-0.02924 -6.666667,-0.05848 -10,-0.08772 -1.608187,-0.08772 -1.725147,-0.263158 -2.192983,-1.842106 -0.555556,-6.842105 0.248538,-14.403753 -2.982456,-19.999999 z"
       id="path3051"
       style="fill:#e2e2e2;fill-opacity:1;stroke:none" />
    <g
       transform="matrix(0.01386258,0,0,0.01386258,-30.883104,46.137195)"
       id="g3824"
       style="fill:#666666">
      <path
         d="m 558.091,36.654 0,-33.868 c 44.129,-0.665 45.915,-1.25 60.505,-0.874 22.425,0.566 35.949,6.972 45.674,16.819 9.374,9.491 16.808,23.965 16.463,44.973 -0.203,12.096 -7.674,56.594 -61.773,59.371 -6.344,0.566 -20.909,0.067 -30.16,0.283 l 9.146,-34.748 c 21.433,1.786 38.438,-4.977 39.343,-25.264 0.991,-22.775 -19.197,-30.006 -39.337,-26.44 l -39.861,-0.252"
         id="path3"
         style="fill:#666666" />
      <polyline
         style="fill:#666666"
         id="polyline5"
         points="597.927,156.111 558.091,156.105 558.091,29.436 597.927,29.694 597.927,156.111 " />
      <path
         d="m 741.115,56.787 32.697,11.646 c 21.766,8.592 26.391,26.027 26.182,41.043 -0.48,34.828 -28.27,47.885 -50.423,49.77 -25.189,2.138 -44.688,-2.081 -51.242,-3.146 l 0,-37.902 c 19.937,6.055 43.137,5.814 50.971,2.76 5.926,-2.31 10.428,-5.839 10.07,-10.471 -0.197,-2.513 -0.449,-5.709 -7.939,-8.911 L 721.278,90.638 C 701.915,83.666 694.444,65.282 695.251,48.906 696.89,15.82 723.323,-0.926 749.714,0.042 c 8.142,0.295 19.111,0.104 35.063,2.31 l 0,37.55 c -17.873,-4.157 -26.255,-4.089 -35.476,-2.943 -10.315,1.274 -14.947,6.608 -14.731,12.306 0.104,2.888 2.987,6.054 6.547,7.471"
         id="path7"
         style="fill:#666666" />
      <polyline
         style="fill:#666666"
         id="polyline9"
         points="181.926,59.922 224.823,59.922 224.811,2.928 264.653,2.928 264.653,156.136 224.823,156.136   224.823,94.628 181.926,94.628 181.92,156.136 142.036,156.136 142.036,2.928 181.92,2.928 181.926,59.922 " />
      <rect
         width="39.866001"
         height="153.20799"
         x="302.17801"
         y="2.928"
         id="rect11"
         style="fill:#666666" />
      <rect
         width="39.873001"
         height="153.20799"
         x="480.311"
         y="2.928"
         id="rect13"
         style="fill:#666666" />
      <polyline
         style="fill:#666666"
         id="polyline15"
         points="419.437,121.351 460.542,121.351 460.542,156.124 379.558,156.136 379.558,2.928 419.437,2.928   419.437,121.351 " />
      <path
         d="M 0,36.654 0,2.786 c 44.134,-0.665 45.915,-1.25 60.511,-0.874 22.418,0.566 35.943,6.972 45.674,16.819 9.367,9.491 16.808,23.965 16.463,44.973 -0.21,12.096 -7.681,56.594 -61.78,59.371 -6.337,0.566 -20.448,0.067 -29.698,0.283 L 39.878,88.61 C 61.317,90.396 78.31,83.633 79.196,63.346 80.187,40.571 59.993,33.34 39.86,36.906 L 0,36.654"
         id="path17"
         style="fill:#666666" />
      <polyline
         style="fill:#666666"
         id="polyline19"
         points="39.897,156.111 0,156.105 0,32.065 39.86,32.318 39.897,156.111 " />
    </g>
  </g>
</svg>
